<svg width="52" height="52" viewBox="0 0 52 52" fill="none" xmlns="http://www.w3.org/2000/svg">
<g clip-path="url(#clip0_1_76)">
<path d="M8.66663 10.8333H43.3332V43.3332H8.66663V10.8333Z" fill="black"/>
<path d="M26.0454 52C15.5133 52.026 6.01898 45.682 1.98898 35.958C-2.04101 26.234 0.16682 15.0519 7.60497 7.61587C15.0431 0.179881 26.2513 -2.05611 35.9536 1.99988C40.7075 3.97145 44.7696 7.30897 47.626 11.59C50.4824 15.8711 52.0046 20.9033 51.9999 26.0498C51.9999 40.378 40.4018 51.974 26.0454 52ZM31.7654 14.4799L30.9594 14.5839C30.4654 14.6879 29.9714 14.8439 29.5034 15.0259C28.5913 15.4246 27.7836 16.0286 27.1432 16.7907C26.5028 17.5529 26.047 18.4526 25.8114 19.4198C25.5514 20.4338 25.5514 21.4998 25.8114 22.4878C24.8234 22.4878 23.8354 22.3578 22.8994 22.0978C19.9804 21.4463 17.2547 20.1195 14.9413 18.2239C14.2297 17.6658 13.5836 17.0291 13.0151 16.3259C12.7958 16.1097 12.5957 15.8748 12.4171 15.6239C12.1129 16.1554 11.8771 16.7232 11.7151 17.3139C11.4726 18.3509 11.4781 19.4305 11.7311 20.465C11.984 21.4995 12.4774 22.4598 13.1711 23.2678C13.5091 23.6838 14.0291 23.9438 14.3671 24.3078C14.0707 24.3597 13.7659 24.3328 13.4831 24.2298C13.0107 24.1518 12.5484 24.021 12.1051 23.8398L11.4031 23.5798C11.3636 24.7051 11.6276 25.8202 12.1674 26.8084C12.7072 27.7965 13.5029 28.6211 14.4711 29.1958C15.0951 29.6638 15.8231 29.9498 16.6031 30.0538C16.1871 30.4178 14.3411 30.2618 13.6911 30.1838C14.3411 32.1598 15.8751 33.6938 17.8273 34.3698C18.4513 34.6038 19.1013 34.7078 19.7513 34.7078C19.2113 35.1605 18.6175 35.5447 17.9833 35.8518C16.7612 36.5188 15.4469 37.0007 14.0833 37.2818C13.4853 37.4118 12.8613 37.3858 12.1853 37.4898C11.4912 37.5418 10.7935 37.5156 10.1053 37.4118L10.6773 37.7498C11.2753 38.1138 11.8733 38.4258 12.5233 38.6858C13.7713 39.2058 15.0453 39.6218 16.3453 39.9338C19.4133 40.5838 22.6134 40.4798 25.6294 39.6218C32.4436 37.4898 36.7596 32.4978 38.3998 25.1398C38.6598 23.7618 38.7638 22.3318 38.7118 20.9278L39.7518 20.0698C40.6161 19.3402 41.3616 18.4806 41.9618 17.5219C40.788 18.0405 39.5438 18.3822 38.2698 18.5359C38.5298 18.4059 38.7638 18.2239 38.9978 18.0159C39.9858 17.2099 40.7138 16.1439 41.1038 14.9479L40.2978 15.3899C39.2425 15.9511 38.0996 16.3292 36.9178 16.5079C36.264 15.814 35.467 15.2708 34.5821 14.9161C33.6972 14.5614 32.7456 14.4036 31.7936 14.4539V14.4799H31.7654Z" fill="black"/>
</g>
<defs>
<clipPath id="clip0_1_76">
<rect width="52" height="52" fill="white"/>
</clipPath>
</defs>
</svg>
