<svg width="52" height="52" viewBox="0 0 52 52" fill="none" xmlns="http://www.w3.org/2000/svg">
<path d="M1.4917 25.8853C1.49139 30.7329 2.92863 35.4717 5.62166 39.5024C8.31469 43.533 12.1425 46.6746 16.6211 48.5296C21.0997 50.3847 26.0277 50.8701 30.7822 49.9243C35.5366 48.9786 39.9038 46.6443 43.3315 43.2166C47.9277 38.6199 50.5097 32.3857 50.5096 25.8853C50.4731 19.409 47.8749 13.2104 43.2825 8.64384C38.6902 4.07725 32.477 1.51392 26.0006 1.51392C19.5243 1.51392 13.3111 4.07725 8.71876 8.64384C4.12639 13.2104 1.52814 19.409 1.4917 25.8853Z" fill="black"/>
<path d="M36.9728 15.8992C36.964 15.8822 36.9494 15.8689 36.9316 15.8617C34.8864 14.9234 32.7281 14.2543 30.5108 13.8712C30.4907 13.8675 30.4699 13.8702 30.4515 13.879C30.433 13.8877 30.4177 13.902 30.4078 13.9199C30.1138 14.4533 29.847 15.0013 29.6084 15.5616C27.2182 15.1988 24.7869 15.1988 22.3967 15.5616C22.1565 14.9999 21.8855 14.4518 21.5849 13.9199C21.5745 13.9023 21.5591 13.8883 21.5407 13.8796C21.5222 13.8709 21.5015 13.868 21.4814 13.8712C19.264 14.2536 17.1057 14.9227 15.0608 15.8617C15.0433 15.8691 15.0285 15.8818 15.0184 15.8979C10.929 22.0055 9.80883 27.9622 10.3586 33.8455C10.3601 33.8599 10.3646 33.8738 10.3717 33.8865C10.3787 33.8992 10.3883 33.9103 10.3997 33.9192C12.7809 35.6823 15.4443 37.0281 18.2763 37.8991C18.2962 37.9054 18.3176 37.9051 18.3373 37.8983C18.3572 37.892 18.3745 37.8796 18.387 37.8629C18.9953 37.0353 19.5343 36.159 19.9985 35.2427C20.0082 35.2238 20.0116 35.2023 20.0081 35.1813C20.0046 35.1603 19.9944 35.141 19.9791 35.1263C19.969 35.1164 19.9569 35.1087 19.9437 35.1038C19.0938 34.7786 18.2711 34.3867 17.4831 33.9316C17.4689 33.9231 17.4569 33.9113 17.4483 33.8971C17.4397 33.883 17.4347 33.8669 17.4337 33.8504C17.4328 33.8338 17.4358 33.8173 17.4427 33.8022C17.4496 33.7872 17.4601 33.774 17.4733 33.764C17.6388 33.64 17.8018 33.5122 17.9617 33.3811C17.9756 33.3694 17.9926 33.3618 18.0107 33.3594C18.0287 33.357 18.0471 33.3597 18.0636 33.3674C23.2261 35.7231 28.8152 35.7231 33.9164 33.3674C33.933 33.3592 33.9515 33.3561 33.9698 33.3583C33.9882 33.3605 34.0055 33.368 34.0196 33.3798C34.1798 33.5117 34.343 33.6398 34.5096 33.764C34.5229 33.7739 34.5336 33.7869 34.5406 33.8019C34.5477 33.817 34.5509 33.8335 34.55 33.8501C34.5491 33.8667 34.5442 33.8828 34.5356 33.897C34.527 33.9112 34.5151 33.9231 34.5008 33.9316C33.7146 34.3905 32.8911 34.7823 32.039 35.1028C32.0257 35.1077 32.0137 35.1155 32.0036 35.1255C31.9936 35.1355 31.9858 35.1475 31.9807 35.1607C31.9756 35.1739 31.9734 35.1881 31.9743 35.2022C31.9751 35.2164 31.9789 35.2302 31.9854 35.2427C32.4573 36.1539 32.9955 37.0292 33.5956 37.8616C33.6077 37.8787 33.6249 37.8916 33.6447 37.8983C33.6646 37.9051 33.6861 37.9054 33.7061 37.8991C36.5432 37.031 39.2113 35.685 41.5956 33.9192C41.6071 33.9107 41.6168 33.8998 41.6239 33.8873C41.6309 33.8749 41.6353 33.861 41.6367 33.8467C42.2946 27.0451 40.5351 21.137 36.973 15.8995L36.9728 15.8992ZM20.7692 30.2629C19.2149 30.2629 17.9343 28.8366 17.9343 27.0849C17.9343 25.3335 19.19 23.907 20.7692 23.907C22.3605 23.907 23.6289 25.3456 23.6041 27.0849C23.6041 28.8366 22.3481 30.2629 20.7692 30.2629ZM31.2507 30.2629C29.6964 30.2629 28.4158 28.8366 28.4158 27.0849C28.4158 25.3335 29.6715 23.907 31.2507 23.907C32.8422 23.907 34.1104 25.3456 34.0856 27.0849C34.0856 28.8366 32.8422 30.2629 31.2507 30.2629Z" fill="black"/>
</svg>
